<svg xmlns="http://www.w3.org/2000/svg" viewBox="0 0 500 500"><g id="freepik--Space--inject-1--inject-21"><path d="M173,82.4a381.79,381.79,0,0,0-114.91,100C42.24,203.16,33.76,130.84,50,102.7s65-51.6,113.73-51.6S205.67,64,173,82.4Z" style="fill:#263238"></path><path d="M66.09,400.84c-78.11-40.9-54.87-142.6,7.72-216.21,104.1-122.44,245-174.39,333.66-105.38s90.46,237,59.62,286-99.72,71.22-219.51,71.22S103.72,420.54,66.09,400.84Z" style="fill:#263238"></path></g><g id="freepik--Smoke--inject-1--inject-21"><path d="M476.15,344.56a98.13,98.13,0,0,1-6.83,16.78q-1.08,2.06-2.24,3.88c-1,1.6-2.05,3.17-3.15,4.71-1.3,1.85-2.67,3.67-4.11,5.44q-3.15,3.93-6.72,7.6a113.55,113.55,0,0,1-10.54,9.55c-16,12.81-36.54,22.67-62.24,29.77,0,0-41,12.83-129.45,12.83S113,422.29,113,422.29c-1-.3-1.88-.61-2.8-.93C96,416.51,84.89,410.75,73,404.5l-7-3.66C51.17,393,40,383,32,371.38a83.7,83.7,0,0,1-5.8-9.86C14.64,338.33,14,310.19,21.47,281.08q.75-3,1.64-6a209.29,209.29,0,0,1,10.28-27.49c.12-.28.25-.55.38-.83h0l.45.31c.36.25.7.5,1,.76s.67.51,1,.77a37.9,37.9,0,0,1,4.56,4.3c.53.59,1,1.2,1.55,1.82.28.35.56.71.83,1.08l.65.9q.4.57.78,1.17l.66,1.06c.18.3.36.61.53.92.06.1.12.2.17.3.18.32.35.65.52,1s.38.75.56,1.13.31.66.45,1c.37.83.7,1.68,1,2.54.15.39.28.79.41,1.2l0,.08c.12.37.23.76.34,1.14l.24.9.15.6c.16.67.3,1.36.43,2,0,.26.09.52.13.79s.09.56.13.85.09.78.13,1.17.08.84.12,1.27c.06.9.09,1.8.09,2.72a38.09,38.09,0,0,1-3.48,15.93,38.76,38.76,0,0,1-6.89,10.25,26.85,26.85,0,0,1,13.14,9.32,38.4,38.4,0,0,1,44.66.57c.49.36,1,.73,1.43,1.11a38,38,0,0,1,5.15,5.08c.39.46.76.94,1.13,1.42q.81,1.08,1.56,2.22a36.22,36.22,0,0,1,1.83,3.14c.28.54.54,1.08.8,1.64.5,1.1,1,2.24,1.36,3.4a37.09,37.09,0,0,1,2,12,37.74,37.74,0,0,1-.27,4.53,36.82,36.82,0,0,1-2.11,8.54c-.11.27-.21.54-.32.8h0A17,17,0,0,1,121.88,363a27.07,27.07,0,0,1,12.46-7.33h0l.86-.22a18.48,18.48,0,0,1,2.59-.48c.31-.06.62-.09.93-.12s.87-.08,1.31-.1.95,0,1.43,0a27,27,0,0,1,19.23,8A26.35,26.35,0,0,1,167.59,375a38.92,38.92,0,0,1,20.08-5.52c21.42,0,38.8,17.13,38.8,38.27,0,.18,0,.38,0,.58a17.05,17.05,0,0,1,25,7.54,17,17,0,0,1,27-6.05,33,33,0,0,1-.23-3.75,32.35,32.35,0,0,1,9.16-22.57L288,383c.56-.56,1.15-1.09,1.75-1.61.4-.34.81-.67,1.22-1l.64-.48c.42-.31.86-.62,1.3-.91a31.31,31.31,0,0,1,2.73-1.64l.71-.37c.48-.24,1-.47,1.45-.69s1-.43,1.49-.62,1-.38,1.52-.55a33.6,33.6,0,0,1,32.28,6.2c.76.64,1.48,1.31,2.18,2A33.23,33.23,0,0,1,339,387.9a17,17,0,0,1,7.17-3.34h0a34.82,34.82,0,0,1-.95-3.68c-.08-.42-.16-.84-.23-1.27a32.85,32.85,0,0,1-.41-5.19,32.48,32.48,0,0,1,.27-4.21q.11-.88.27-1.77a31.53,31.53,0,0,1,1.27-4.86q.3-.9.66-1.77c.18-.43.37-.86.56-1.29a33.84,33.84,0,0,1,7-10,34.39,34.39,0,0,1,24.21-9.89,36.09,36.09,0,0,1,5.44.42c.87.14,1.74.31,2.59.51h0l1.28.33,1,.3q.76.24,1.5.51l1.22.47c.4.16.8.34,1.2.52l.87.41.23.11A34,34,0,0,1,411,363a16.93,16.93,0,0,1,11.42-4.4c.51,0,1,0,1.51.06a11.24,11.24,0,0,1-.08-1.31,14,14,0,0,1,5.18-10.85l-1.26-.34a31.23,31.23,0,0,1-9.16-4.43c-.69-.49-1.36-1-2-1.53s-1.28-1.1-1.87-1.69a30.38,30.38,0,0,1-9.22-21.81,28.44,28.44,0,0,1,.27-3.94c.08-.59.18-1.18.29-1.77s.29-1.35.47-2c-.8-.15-1.6-.34-2.38-.56l-1.15-.35c-.77-.26-1.52-.54-2.25-.85s-1.45-.66-2.15-1a28.09,28.09,0,0,1-4.89-3.29,27.27,27.27,0,0,1-9.8-20.93c0-.46,0-.91,0-1.37v-.11c0-.35,0-.7.08-1,0-.15,0-.3,0-.44a.13.13,0,0,1,0-.06c0-.37.08-.72.14-1.08,0-.09,0-.18,0-.27.06-.4.14-.79.22-1.17s.18-.82.28-1.23.17-.63.27-.94.15-.52.23-.77c.21-.64.45-1.28.71-1.9.1-.25.21-.5.32-.75l.12-.25c.11-.24.22-.48.34-.71.31-.64.66-1.27,1-1.89l.31-.5a1.82,1.82,0,0,1,.15-.23c.27-.43.55-.84.86-1.25a1.37,1.37,0,0,1,.15-.21l.4-.53a19.31,19.31,0,0,1,1.31-1.56c.21-.23.42-.46.64-.68s.43-.45.66-.66.45-.44.68-.64.45-.41.68-.61l0,0a24.3,24.3,0,0,1,2.23-1.7,27.92,27.92,0,0,1,15.93-4.94,29.09,29.09,0,0,1,5.24.49c0-.17,0-.32,0-.49a14.14,14.14,0,0,1,.11-1.85c0-.24.05-.47.09-.7a3.06,3.06,0,0,1,.05-.32c.07-.43.16-.85.27-1.27a.07.07,0,0,0,0,0,15.4,15.4,0,0,1,.48-1.5c.09-.25.19-.5.29-.75s.17-.39.26-.58.14-.3.22-.45a16.44,16.44,0,0,1,2.52-3.66l.35-.37a11.63,11.63,0,0,1,.87-.85,5.82,5.82,0,0,1,.48-.41l.46-.37a12.65,12.65,0,0,1,1.5-1.05l.53-.32.54-.29c.19-.11.39-.21.58-.3.37-.17.73-.33,1.11-.47l.58-.22c.35-.12.7-.24,1.07-.33s.54-.15.82-.21l.55-.11a10.33,10.33,0,0,1,1.26-.19l.65-.06.65,0c.22,0,.44,0,.67,0a16.89,16.89,0,0,1,10.95,4,12.36,12.36,0,0,1,12.41-11.75l.4,0a27.15,27.15,0,0,1-3.53-13.39,27.56,27.56,0,0,1,20-26.37,335.31,335.31,0,0,1,10.82,77.14C485.8,297.21,482.45,324.47,476.15,344.56Z" style="fill:#37474f"></path><path d="M336.06,416.93H300.15a18,18,0,0,1,35.91,0Z" style="fill:#263238"></path><path d="M110.2,421.36C96,416.51,84.89,410.75,73,404.5a23,23,0,0,1,37.16,16.86Z" style="fill:#263238"></path><path d="M211.36,421H144.53a15.46,15.46,0,0,1-3.1-9.29,15.8,15.8,0,0,1,31.59-.37A23.09,23.09,0,0,1,211.36,421Z" style="fill:#263238"></path><path d="M469.32,361.34q-1.08,2.06-2.24,3.88c-1,1.6-2.05,3.17-3.15,4.71-1.3,1.85-2.67,3.67-4.11,5.44q-3.15,3.93-6.72,7.6a113.55,113.55,0,0,1-10.54,9.55c-16,12.81-36.54,22.67-62.24,29.77l-20.84,3.65-.1-3.65a38,38,0,0,1,51.11-14.91A17.48,17.48,0,0,1,427,395.75a17.82,17.82,0,0,1,4.82.68A37.42,37.42,0,0,1,469.32,361.34Z" style="fill:#263238"></path><path d="M476.15,344.56a24.86,24.86,0,0,1-4.27-46.11A17.54,17.54,0,0,1,465.54,285a17.82,17.82,0,0,1,17.95-17.71c.54,0,1.07,0,1.59.07C485.8,297.21,482.45,324.47,476.15,344.56Z" style="fill:#263238"></path><path d="M43.21,371.73a24.94,24.94,0,0,0-13.72-22.19,17.54,17.54,0,0,0,6.34-13.49,17.82,17.82,0,0,0-17.95-17.71c-.45,0-.89,0-1.32.06.09,15.47,3.14,30.08,9.64,43.12a83.7,83.7,0,0,0,5.8,9.86,84.92,84.92,0,0,0,8.85,10.84A24.58,24.58,0,0,0,43.21,371.73Z" style="fill:#263238"></path><path d="M442.1,286.92a5.5,5.5,0,1,1,5.5,5.43A5.46,5.46,0,0,1,442.1,286.92Z" style="fill:#263238"></path><path d="M58.48,344.31a5.5,5.5,0,1,1,5.5,5.43A5.46,5.46,0,0,1,58.48,344.31Z" style="fill:#263238"></path><path d="M126.79,400.94a5.78,5.78,0,1,1,5.78,5.7A5.73,5.73,0,0,1,126.79,400.94Z" style="fill:#263238"></path><path d="M346.32,409.85a5.78,5.78,0,1,1,5.78,5.7A5.74,5.74,0,0,1,346.32,409.85Z" style="fill:#263238"></path><ellipse cx="430.82" cy="219.62" rx="4.32" ry="4.26" style="fill:#455a64"></ellipse><path d="M328.77,345.58a4,4,0,1,1,4,3.9A3.92,3.92,0,0,1,328.77,345.58Z" style="fill:#455a64"></path><ellipse cx="131.91" cy="333.26" rx="3.21" ry="3.17" style="fill:#455a64"></ellipse><path d="M60.13,285.71a6.13,6.13,0,1,1,6.13,6A6.09,6.09,0,0,1,60.13,285.71Z" style="fill:#455a64"></path><path d="M279.26,410.56c-.25-.25-.52-.48-.78-.71a32.66,32.66,0,0,0,.63,3.58C279.11,412.46,279.17,411.51,279.26,410.56Z" style="fill:#BA68C8"></path><path d="M339,387.91a33.27,33.27,0,0,0-60.76,18.19,31.07,31.07,0,0,0,.24,3.75c.26.23.53.46.78.71a33.26,33.26,0,0,1,56.9-19.77,32.5,32.5,0,0,1,8.44,15.35v0A32.26,32.26,0,0,0,339,387.91Z" style="fill:#BA68C8"></path><path d="M389.67,344a35.53,35.53,0,0,1,4.53.3,34.53,34.53,0,0,0-15.37-3.6,34,34,0,0,0-34.23,33.76,33.37,33.37,0,0,0,1.57,10.15,34.17,34.17,0,0,0,28.12,23.31,34.31,34.31,0,0,1-7.79-5.32,33.59,33.59,0,0,1-10.11-16.94,33.24,33.24,0,0,1-.95-7.9A34,34,0,0,1,389.67,344Z" style="fill:#BA68C8"></path><path d="M445,341.36a31,31,0,0,1-31.21-30.78c0-.42,0-.83.06-1.25a30.64,30.64,0,0,1,1.09-6.95,27.83,27.83,0,0,1-22.53-27,27.18,27.18,0,0,1,6.79-18,27.38,27.38,0,0,0,7.4,51.5,30.35,30.35,0,0,0-1,7.73,30.84,30.84,0,0,0,23.51,29.8,14.42,14.42,0,0,1,17.44-.57,31.14,31.14,0,0,0,12.8-8A31.43,31.43,0,0,1,445,341.36Z" style="fill:#BA68C8"></path><path d="M437.38,270.79c.42-.08.84-.19,1.25-.3-.5,0-1-.09-1.48-.17C437.23,270.48,437.31,270.63,437.38,270.79Z" style="fill:#BA68C8"></path><path d="M437.15,270.32a16.82,16.82,0,0,1-14.06-13.6,16.29,16.29,0,0,1-.28-2.9,16.56,16.56,0,0,1,1-5.7,16.87,16.87,0,0,1,11.35-10.39c-.38,0-.76-.06-1.15-.06A17,17,0,0,0,418.39,248a16.37,16.37,0,0,0-1.31,6.42c0,.17,0,.34,0,.51A16.84,16.84,0,0,0,434,271.12a16.67,16.67,0,0,0,3.34-.33C437.31,270.63,437.23,270.48,437.15,270.32Z" style="fill:#BA68C8"></path><path d="M160.13,380.82a38.66,38.66,0,0,1,7.46-5.8,26.86,26.86,0,0,0-26.17-20.35,27.37,27.37,0,0,0-7.12,1A26.72,26.72,0,0,1,160.13,380.82Z" style="fill:#BA68C8"></path><path d="M75.42,307.21l-.82,0A37.61,37.61,0,0,1,105,344a36.86,36.86,0,0,1-4.58,17.84,37.69,37.69,0,0,1-6,8.14A38.1,38.1,0,0,1,67.81,381.4a38.89,38.89,0,0,0,7.61.75,38.26,38.26,0,0,0,18.22-4.58,37.78,37.78,0,0,0,17.07-19,36.83,36.83,0,0,0,2.7-13.88C113.41,324,96.4,307.21,75.42,307.21Z" style="fill:#BA68C8"></path><path d="M50.72,278.57a38.17,38.17,0,0,1-10.38,26.18,26.85,26.85,0,0,0-14.89-.52,38.42,38.42,0,0,0,17-31.87,38.11,38.11,0,0,0-9.1-24.74c.12-.28.25-.55.38-.83A38.36,38.36,0,0,1,50.72,278.57Z" style="fill:#BA68C8"></path><g style="opacity:0.3"><path d="M279.26,410.56c-.25-.25-.52-.48-.78-.71a32.66,32.66,0,0,0,.63,3.58C279.11,412.46,279.17,411.51,279.26,410.56Z"></path><path d="M339,387.91a33.27,33.27,0,0,0-60.76,18.19,31.07,31.07,0,0,0,.24,3.75c.26.23.53.46.78.71a33.26,33.26,0,0,1,56.9-19.77,32.5,32.5,0,0,1,8.44,15.35v0A32.26,32.26,0,0,0,339,387.91Z"></path><path d="M389.67,344a35.53,35.53,0,0,1,4.53.3,34.53,34.53,0,0,0-15.37-3.6,34,34,0,0,0-34.23,33.76,33.37,33.37,0,0,0,1.57,10.15,34.17,34.17,0,0,0,28.12,23.31,34.31,34.31,0,0,1-7.79-5.32,33.59,33.59,0,0,1-10.11-16.94,33.24,33.24,0,0,1-.95-7.9A34,34,0,0,1,389.67,344Z"></path><path d="M445,341.36a31,31,0,0,1-31.21-30.78c0-.42,0-.83.06-1.25a30.64,30.64,0,0,1,1.09-6.95,27.83,27.83,0,0,1-22.53-27,27.18,27.18,0,0,1,6.79-18,27.38,27.38,0,0,0,7.4,51.5,30.35,30.35,0,0,0-1,7.73,30.84,30.84,0,0,0,23.51,29.8,14.42,14.42,0,0,1,17.44-.57,31.14,31.14,0,0,0,12.8-8A31.43,31.43,0,0,1,445,341.36Z"></path><path d="M437.38,270.79c.42-.08.84-.19,1.25-.3-.5,0-1-.09-1.48-.17C437.23,270.48,437.31,270.63,437.38,270.79Z"></path><path d="M437.15,270.32a16.82,16.82,0,0,1-14.06-13.6,16.29,16.29,0,0,1-.28-2.9,16.56,16.56,0,0,1,1-5.7,16.87,16.87,0,0,1,11.35-10.39c-.38,0-.76-.06-1.15-.06A17,17,0,0,0,418.39,248a16.37,16.37,0,0,0-1.31,6.42c0,.17,0,.34,0,.51A16.84,16.84,0,0,0,434,271.12a16.67,16.67,0,0,0,3.34-.33C437.31,270.63,437.23,270.48,437.15,270.32Z"></path><path d="M160.13,380.82a38.66,38.66,0,0,1,7.46-5.8,26.86,26.86,0,0,0-26.17-20.35,27.37,27.37,0,0,0-7.12,1A26.72,26.72,0,0,1,160.13,380.82Z"></path><path d="M75.42,307.21l-.82,0A37.61,37.61,0,0,1,105,344a36.86,36.86,0,0,1-4.58,17.84,37.69,37.69,0,0,1-6,8.14A38.1,38.1,0,0,1,67.81,381.4a38.89,38.89,0,0,0,7.61.75,38.26,38.26,0,0,0,18.22-4.58,37.78,37.78,0,0,0,17.07-19,36.83,36.83,0,0,0,2.7-13.88C113.41,324,96.4,307.21,75.42,307.21Z"></path><path d="M50.72,278.57a38.17,38.17,0,0,1-10.38,26.18,26.85,26.85,0,0,0-14.89-.52,38.42,38.42,0,0,0,17-31.87,38.11,38.11,0,0,0-9.1-24.74c.12-.28.25-.55.38-.83A38.36,38.36,0,0,1,50.72,278.57Z"></path></g></g><g id="freepik--Stars--inject-1--inject-21"><g id="freepik--stars--inject-1--inject-21"><path d="M181.69,248.3a1.56,1.56,0,1,1-1.56-1.56A1.55,1.55,0,0,1,181.69,248.3Z" style="fill:#fff"></path><circle cx="78.44" cy="223.71" r="1.56" style="fill:#fff"></circle><path d="M208.47,105.15a1.56,1.56,0,1,1-1.56-1.56A1.56,1.56,0,0,1,208.47,105.15Z" style="fill:#fff"></path><path d="M62.19,151.07a1.56,1.56,0,1,1-1.55-1.55A1.55,1.55,0,0,1,62.19,151.07Z" style="fill:#fff"></path><path d="M327.23,259.06a1.68,1.68,0,1,1-1.68-1.68A1.68,1.68,0,0,1,327.23,259.06Z" style="fill:#fff"></path><path d="M331.92,262a.84.84,0,1,1-.84-.84A.84.84,0,0,1,331.92,262Z" style="fill:#fff"></path><path d="M378,311.48a.84.84,0,1,1-.84-.84A.85.85,0,0,1,378,311.48Z" style="fill:#fff"></path><path d="M375.27,318.33a1.68,1.68,0,1,1-1.68-1.67A1.68,1.68,0,0,1,375.27,318.33Z" style="fill:#fff"></path><path d="M443.58,187.75a.84.84,0,0,1-.62,1.56.84.84,0,0,1,.62-1.56Z" style="fill:#fff"></path><path d="M449,192.83a1.68,1.68,0,1,1-2.18.94A1.67,1.67,0,0,1,449,192.83Z" style="fill:#fff"></path><path d="M325.35,131.82a.84.84,0,1,1-.62,1.56.84.84,0,0,1,.62-1.56Z" style="fill:#fff"></path><path d="M330.72,136.9a1.68,1.68,0,1,1-2.17.95A1.68,1.68,0,0,1,330.72,136.9Z" style="fill:#fff"></path><path d="M412.14,123.26a1.68,1.68,0,1,1-2.17.95A1.68,1.68,0,0,1,412.14,123.26Z" style="fill:#fff"></path><path d="M91.5,89.48a.78.78,0,1,1-1,.44A.78.78,0,0,1,91.5,89.48Z" style="fill:#fff"></path><path d="M96.49,94.2a1.56,1.56,0,1,1-2,.88A1.56,1.56,0,0,1,96.49,94.2Z" style="fill:#fff"></path><path d="M129.48,226.53a.78.78,0,1,1-.78-.78A.78.78,0,0,1,129.48,226.53Z" style="fill:#fff"></path><circle cx="133.02" cy="223.21" r="1.56" style="fill:#fff"></circle><g style="opacity:0.5"><path d="M334.22,195.89a1.77,1.77,0,1,1-1.76-1.76A1.76,1.76,0,0,1,334.22,195.89Z" style="fill:#fff"></path><path d="M329,200.71a1.05,1.05,0,1,1-1.05-1.05A1,1,0,0,1,329,200.71Z" style="fill:#fff"></path><path d="M326,194.13a.85.85,0,1,1-.85-.85A.85.85,0,0,1,326,194.13Z" style="fill:#fff"></path></g><g style="opacity:0.5"><path d="M294.64,87.9a1.76,1.76,0,1,1-1.76-1.76A1.76,1.76,0,0,1,294.64,87.9Z" style="fill:#fff"></path><path d="M289.37,92.72a1.05,1.05,0,1,1-1.05-1A1,1,0,0,1,289.37,92.72Z" style="fill:#fff"></path><path d="M286.39,86.14a.85.85,0,1,1-.85-.85A.85.85,0,0,1,286.39,86.14Z" style="fill:#fff"></path></g><g style="opacity:0.5"><path d="M72.51,128a1.76,1.76,0,1,1-2.48-.31A1.76,1.76,0,0,1,72.51,128Z" style="fill:#fff"></path><path d="M71.3,135a1.05,1.05,0,0,1-1.66,1.29A1.05,1.05,0,1,1,71.3,135Z" style="fill:#fff"></path><path d="M64.91,131.62a.85.85,0,1,1-1.2-.15A.86.86,0,0,1,64.91,131.62Z" style="fill:#fff"></path></g><g style="opacity:0.5"><path d="M186.59,334.57a1.75,1.75,0,0,1,.61,2.41,1.76,1.76,0,1,1-.61-2.41Z" style="fill:#fff"></path><path d="M188,341.56a1.05,1.05,0,0,1-1.08,1.81,1.05,1.05,0,0,1,1.08-1.81Z" style="fill:#fff"></path><path d="M180.85,340.75a.86.86,0,0,1,.29,1.17.85.85,0,1,1-.29-1.17Z" style="fill:#fff"></path></g><path d="M378.33,159.75a1.68,1.68,0,1,1-1.68-1.68A1.69,1.69,0,0,1,378.33,159.75Z" style="fill:#fff"></path><path d="M402.34,178.1l-3.29,1.14-.93,3.36a.4.4,0,0,1-.7.14l-2.1-2.78-3.48.15a.39.39,0,0,1-.34-.62l2-2.86-1.22-3.26a.4.4,0,0,1,.49-.52l3.33,1,2.72-2.18a.4.4,0,0,1,.64.31l.07,3.48,2.91,1.92A.39.39,0,0,1,402.34,178.1Z" style="fill:#fff"></path><path d="M347.3,84.79,344,85.93l-.93,3.36a.4.4,0,0,1-.7.13l-2.1-2.78-3.48.16a.4.4,0,0,1-.34-.62l2-2.86-1.22-3.26a.4.4,0,0,1,.49-.52l3.33,1,2.72-2.17a.4.4,0,0,1,.65.3l.06,3.48,2.91,1.92A.4.4,0,0,1,347.3,84.79Z" style="fill:#fff"></path><path d="M151.9,74.68l-3.29,1.14-.93,3.36a.4.4,0,0,1-.7.13l-2.1-2.78-3.48.16a.39.39,0,0,1-.34-.62l2-2.86L141.82,70a.4.4,0,0,1,.49-.52l3.33,1,2.73-2.17a.4.4,0,0,1,.64.3l.07,3.48L152,74A.4.4,0,0,1,151.9,74.68Z" style="fill:#fff"></path><circle cx="151.56" cy="175.34" r="1.56" style="fill:#fff"></circle><path d="M140,156.26l-1.33,3.22,1.9,2.92a.39.39,0,0,1-.36.61l-3.47-.26-2.19,2.71a.4.4,0,0,1-.7-.16l-.82-3.39-3.25-1.24a.4.4,0,0,1-.07-.71l3-1.82.18-3.48a.39.39,0,0,1,.65-.28l2.65,2.25,3.37-.9A.39.39,0,0,1,140,156.26Z" style="fill:#fff"></path><path d="M108.7,277.23l-2.9,1.94,0,3.48a.4.4,0,0,1-.64.31l-2.74-2.15-3.33,1a.4.4,0,0,1-.49-.52l1.21-3.27-2-2.84a.39.39,0,0,1,.34-.62l3.48.13,2.08-2.79a.39.39,0,0,1,.7.13l1,3.35,3.3,1.12A.39.39,0,0,1,108.7,277.23Z" style="fill:#fff"></path></g></g><g id="freepik--Meteorites--inject-1--inject-21"><g id="freepik--meteorites--inject-1--inject-21"><path d="M363.12,219.87a3.14,3.14,0,0,1,6.28,0c0,1.74-1.4,64.3-3.14,64.3S363.12,221.61,363.12,219.87Z" style="fill:#BA68C8"></path><path d="M364.06,219.87a2.2,2.2,0,1,1,2.2,2.2A2.21,2.21,0,0,1,364.06,219.87Z" style="fill:#BA68C8"></path><path d="M364.85,219.87a1.41,1.41,0,1,1,1.41,1.41A1.41,1.41,0,0,1,364.85,219.87Z" style="fill:#fff"></path><path d="M154,282.8a1.67,1.67,0,1,1,3.34,0c0,.92-.74,34.27-1.67,34.27S154,283.72,154,282.8Z" style="fill:#BA68C8"></path><circle cx="155.62" cy="282.8" r="1.17" style="fill:#BA68C8"></circle><path d="M154.87,282.8a.75.75,0,1,1,.75.75A.75.75,0,0,1,154.87,282.8Z" style="fill:#fff"></path><path d="M178.67,152.53a2.19,2.19,0,0,1,4.37,0c0,1.21-1,44.69-2.19,44.69S178.67,153.74,178.67,152.53Z" style="fill:#BA68C8"></path><path d="M179.33,152.53a1.53,1.53,0,1,1,1.52,1.53A1.53,1.53,0,0,1,179.33,152.53Z" style="fill:#BA68C8"></path><circle cx="180.85" cy="152.53" r="0.98" style="fill:#fff"></circle></g></g></svg>