<svg width="121" height="363" viewBox="0 0 121 363" fill="none" xmlns="http://www.w3.org/2000/svg">
<path d="M71.346 272.03C71.3493 275.709 70.5503 279.345 69.0045 282.683C67.4588 286.022 65.2036 288.983 62.396 291.36C60.5394 292.891 59.0402 294.809 58.0037 296.981C56.9672 299.152 56.4185 301.524 56.396 303.93V340.36L55.916 345.36C55.436 347.06 55.396 348.25 53.346 349.42C52.1514 350.087 50.8587 350.559 49.516 350.82C47.1737 351.3 44.7583 351.3 42.416 350.82C41.0806 350.556 39.7949 350.084 38.606 349.42C36.9643 348.46 35.9627 347.244 35.6565 345.987C35.5897 345.712 35.556 345.536 35.556 345.16V344.622V303.81C35.5234 301.426 34.9694 299.078 33.9329 296.931C32.8964 294.783 31.4025 292.889 29.556 291.38C26.7082 288.986 24.4246 285.992 22.8688 282.612C21.3129 279.233 20.5232 275.551 20.556 271.83C20.5825 265.099 23.2819 258.654 28.0604 253.913C32.8388 249.172 39.3048 246.524 46.036 246.55C52.7672 246.577 59.2122 249.276 63.9531 254.055C68.694 258.833 71.3425 265.299 71.316 272.03H71.346Z" fill="#BA68C8"/>
<path d="M56.416 340.36H35.916C33.916 352.86 42.4224 362.36 45.916 362.36C49.4097 362.36 57.416 352.86 56.416 340.36Z" fill="#BA68C8"/>
<path d="M60.126 272.03C60.1209 274.292 59.5734 276.519 58.5293 278.526C57.4853 280.532 55.9753 282.258 54.126 283.56C52.6585 284.648 51.4712 286.07 50.6626 287.708C49.8539 289.347 49.4472 291.154 49.476 292.98V340.27C49.4868 341.216 49.1242 342.127 48.4671 342.807C47.8099 343.486 46.9112 343.879 45.966 343.9H45.916C44.9691 343.882 44.0679 343.49 43.4085 342.81C42.7492 342.13 42.3853 341.217 42.396 340.27V292.79C42.412 290.992 41.9995 289.216 41.1926 287.61C40.3857 286.003 39.2077 284.611 37.756 283.55C35.8507 282.212 34.3058 280.424 33.259 278.344C32.2121 276.264 31.6958 273.958 31.756 271.63C31.8091 267.875 33.3518 264.294 36.0448 261.676C38.7378 259.058 42.3606 257.617 46.116 257.67C49.8715 257.723 53.4521 259.266 56.0701 261.959C58.6881 264.652 60.1291 268.275 60.076 272.03H60.126Z" fill="#BA68C8"/>
<path opacity="0.7" d="M60.126 272.03C60.1209 274.292 59.5734 276.519 58.5293 278.526C57.4853 280.532 55.9753 282.258 54.126 283.56C52.6585 284.648 51.4712 286.07 50.6626 287.708C49.8539 289.347 49.4472 291.154 49.476 292.98V340.27C49.4868 341.216 49.1242 342.127 48.4671 342.807C47.8099 343.486 46.9112 343.879 45.966 343.9H45.916C44.9691 343.882 44.0679 343.49 43.4085 342.81C42.7492 342.13 42.3853 341.217 42.396 340.27V292.79C42.412 290.992 41.9995 289.216 41.1926 287.61C40.3857 286.003 39.2077 284.611 37.756 283.55C35.8507 282.212 34.3058 280.424 33.259 278.344C32.2121 276.264 31.6958 273.958 31.756 271.63C31.8091 267.875 33.3518 264.294 36.0448 261.676C38.7378 259.058 42.3606 257.617 46.116 257.67C49.8715 257.723 53.4521 259.266 56.0701 261.959C58.6881 264.652 60.1291 268.275 60.076 272.03H60.126Z" fill="white"/>
<path opacity="0.7" d="M56.556 288.03C60.2122 288.03 63.176 285.066 63.176 281.41C63.176 277.754 60.2122 274.79 56.556 274.79C52.8999 274.79 49.936 277.754 49.936 281.41C49.936 285.066 52.8999 288.03 56.556 288.03Z" fill="white"/>
<path opacity="0.7" d="M52.506 268.24C52.5061 267.451 52.7395 266.68 53.1768 266.023C53.6142 265.367 54.236 264.854 54.964 264.55C55.692 264.246 56.4936 264.164 57.2682 264.314C58.0427 264.464 58.7555 264.84 59.3168 265.395C59.8782 265.949 60.263 266.657 60.423 267.43C60.5829 268.202 60.5108 269.005 60.2157 269.737C59.9206 270.468 59.4157 271.097 58.7645 271.542C58.1133 271.988 57.345 272.23 56.556 272.24C56.0266 272.247 55.501 272.148 55.0099 271.95C54.5188 271.752 54.072 271.459 53.6952 271.087C53.3185 270.715 53.0194 270.271 52.8152 269.783C52.6111 269.294 52.506 268.77 52.506 268.24Z" fill="white"/>
<path opacity="0.7" d="M44.786 261.79C44.786 261.395 44.9033 261.008 45.1231 260.679C45.3429 260.35 45.6552 260.094 46.0207 259.943C46.3861 259.791 46.7882 259.752 47.1762 259.829C47.5642 259.906 47.9205 260.096 48.2002 260.376C48.4799 260.656 48.6704 261.012 48.7476 261.4C48.8248 261.788 48.7852 262.19 48.6338 262.556C48.4824 262.921 48.2261 263.234 47.8972 263.453C47.5683 263.673 47.1816 263.79 46.786 263.79C46.2556 263.79 45.7469 263.58 45.3718 263.205C44.9967 262.829 44.786 262.321 44.786 261.79Z" fill="white"/>
<path opacity="0.7" d="M28.786 264.19C28.786 263.114 29.1053 262.062 29.7035 261.167C30.3017 260.272 31.1519 259.575 32.1465 259.163C33.1412 258.752 34.2355 258.645 35.291 258.856C36.3465 259.066 37.3158 259.585 38.0762 260.347C38.8366 261.109 39.3539 262.079 39.5627 263.135C39.7715 264.191 39.6623 265.285 39.249 266.279C38.8358 267.273 38.137 268.122 37.2411 268.718C36.3451 269.315 35.2924 269.632 34.216 269.63C33.5021 269.63 32.7952 269.49 32.1357 269.216C31.4763 268.943 30.8772 268.542 30.3729 268.036C29.8685 267.531 29.4688 266.931 29.1965 266.271C28.9242 265.611 28.7847 264.904 28.786 264.19Z" fill="white"/>
<path opacity="0.7" d="M27.916 274.02C27.916 274.525 28.0656 275.018 28.3458 275.437C28.626 275.856 29.0242 276.183 29.4902 276.376C29.9561 276.569 30.4689 276.62 30.9635 276.521C31.4582 276.423 31.9125 276.18 32.2691 275.823C32.6258 275.467 32.8686 275.012 32.967 274.518C33.0654 274.023 33.0149 273.51 32.8219 273.044C32.6289 272.579 32.3021 272.18 31.8827 271.9C31.4634 271.62 30.9704 271.47 30.466 271.47C29.7897 271.47 29.1411 271.739 28.6629 272.217C28.1847 272.695 27.916 273.344 27.916 274.02Z" fill="white"/>
<path opacity="0.7" d="M33.916 287.08C36.2025 287.08 38.056 285.227 38.056 282.94C38.056 280.654 36.2025 278.8 33.916 278.8C31.6296 278.8 29.776 280.654 29.776 282.94C29.776 285.227 31.6296 287.08 33.916 287.08Z" fill="white"/>
<path opacity="0.7" d="M39.656 289.19C39.656 288.516 39.856 287.857 40.2307 287.296C40.6054 286.735 41.138 286.298 41.7611 286.04C42.3842 285.782 43.0698 285.714 43.7313 285.846C44.3928 285.977 45.0004 286.302 45.4773 286.779C45.9542 287.256 46.2789 287.864 46.4105 288.525C46.5421 289.187 46.4746 289.872 46.2165 290.495C45.9584 291.118 45.5213 291.651 44.9605 292.026C44.3998 292.4 43.7405 292.6 43.066 292.6C42.1616 292.6 41.2943 292.241 40.6548 291.602C40.0153 290.962 39.656 290.095 39.656 289.19Z" fill="white"/>
<path opacity="0.7" d="M23.036 268.24C23.034 267.896 23.1344 267.558 23.3244 267.271C23.5144 266.983 23.7854 266.759 24.1032 266.626C24.421 266.492 24.7711 266.457 25.1093 266.523C25.4475 266.589 25.7585 266.754 26.0028 266.996C26.2472 267.239 26.4139 267.549 26.4818 267.887C26.5498 268.225 26.5159 268.575 26.3845 268.894C26.2531 269.212 26.0301 269.485 25.7438 269.676C25.4574 269.868 25.1206 269.97 24.776 269.97C24.3163 269.97 23.8752 269.788 23.5492 269.464C23.2232 269.14 23.0387 268.7 23.036 268.24Z" fill="white"/>
<path opacity="0.7" d="M60.846 261.05C60.846 260.597 60.9804 260.155 61.232 259.778C61.4836 259.402 61.8412 259.108 62.2597 258.935C62.6781 258.761 63.1386 258.716 63.5828 258.804C64.027 258.893 64.435 259.111 64.7553 259.431C65.0756 259.751 65.2937 260.159 65.382 260.604C65.4704 261.048 65.425 261.508 65.2517 261.927C65.0784 262.345 64.7849 262.703 64.4083 262.954C64.0317 263.206 63.589 263.34 63.136 263.34C62.8353 263.34 62.5375 263.281 62.2597 263.166C61.9819 263.051 61.7294 262.882 61.5168 262.67C61.3041 262.457 61.1354 262.205 61.0203 261.927C60.9053 261.649 60.846 261.351 60.846 261.05Z" fill="white"/>
<path opacity="0.7" d="M63.126 272.28C63.124 271.823 63.2581 271.375 63.5111 270.993C63.7642 270.612 64.1249 270.314 64.5474 270.138C64.9699 269.962 65.4352 269.915 65.8842 270.004C66.3332 270.093 66.7457 270.313 67.0694 270.637C67.3931 270.961 67.6133 271.373 67.7021 271.822C67.7909 272.271 67.7443 272.736 67.5682 273.159C67.3922 273.581 67.0945 273.942 66.7131 274.195C66.3317 274.448 65.8838 274.582 65.426 274.58C64.8168 274.578 64.2334 274.335 63.8026 273.904C63.3718 273.473 63.1286 272.89 63.126 272.28Z" fill="white"/>
<path opacity="0.7" d="M39.256 274.14C39.256 273.683 39.3918 273.236 39.646 272.856C39.9003 272.476 40.2617 272.18 40.6844 272.005C41.107 271.831 41.572 271.786 42.0204 271.875C42.4688 271.965 42.8803 272.186 43.203 272.51C43.5257 272.835 43.7449 273.247 43.8329 273.696C43.9209 274.145 43.8737 274.609 43.6973 275.031C43.5209 275.453 43.2233 275.813 42.8421 276.066C42.4609 276.319 42.0133 276.452 41.556 276.45C41.2532 276.45 40.9532 276.391 40.6735 276.274C40.3938 276.158 40.1398 275.988 39.9261 275.773C39.7124 275.559 39.5432 275.304 39.4282 275.024C39.3132 274.743 39.2547 274.443 39.256 274.14Z" fill="white"/>
<path d="M75.916 22.3604C75.6353 22.3536 75.3593 22.434 75.126 22.5904C74.0409 23.812 73.0386 25.1049 72.126 26.4604C69.966 29.7204 65.456 36.1504 63.866 42.9504C63.6914 43.711 63.6107 44.4901 63.626 45.2704C60.876 93.3604 62.786 128.21 63.536 182.44C63.536 184.34 65.206 186.28 68.666 187.38C71.2966 188.219 74.1144 188.275 76.776 187.54C80.276 186.54 82.056 184.71 82.096 182.81C85.156 128.65 88.256 93.9004 87.386 45.7304C87.4398 44.9542 87.3928 44.1744 87.246 43.4104C85.926 36.5504 81.666 29.9504 79.636 26.6104C78.7625 25.2119 77.7936 23.8754 76.736 22.6104C76.4978 22.4388 76.2095 22.3509 75.916 22.3604Z" fill="#455A64"/>
<path d="M87.346 46.1104C86.5573 47.1171 85.5526 47.9339 84.406 48.5004C79.306 51.1504 71.246 50.8103 66.406 47.7303C65.2639 47.0417 64.301 46.0925 63.596 44.9604C63.596 45.0504 63.596 45.1404 63.596 45.2404L63.356 49.6203C64.0589 50.7923 65.0416 51.7716 66.216 52.4704C71.066 55.5504 79.126 55.9004 84.216 53.2404C85.5194 52.6143 86.6287 51.6466 87.426 50.4404C87.396 49.0104 87.376 47.5604 87.346 46.1104Z" fill="#BA68C8"/>
<path d="M75.126 22.5604C74.0409 23.782 73.0386 25.0749 72.126 26.4304C69.966 29.6904 65.456 36.1204 63.866 42.9204C63.6914 43.681 63.6107 44.4601 63.626 45.2404C60.876 93.3304 62.786 128.18 63.536 182.41C63.536 184.11 64.866 185.83 67.626 186.97C67.816 159.23 68.236 91.1504 68.166 70.4804C68.036 44.3604 74.016 26.1904 75.916 22.3604C75.6386 22.346 75.3632 22.4157 75.126 22.5604Z" fill="#37474F"/>
<path d="M29.146 194.36C24.566 209.19 19.906 224 14.946 238.71C14.066 241.28 15.186 244.6 17.636 246.71C25.544 253.392 35.6151 256.965 45.966 256.76C56.3427 256.757 66.3815 253.071 74.296 246.36C76.736 244.24 77.856 240.98 76.986 238.47C71.936 223.99 67.296 209.38 62.786 194.73L29.146 194.36Z" fill="#37474F"/>
<path d="M45.966 245.2C35.656 245.54 24.046 241.63 16.316 234.66L14.916 238.73C14.036 241.3 15.156 244.62 17.606 246.73C25.526 253.391 35.5889 256.961 45.936 256.78C56.3219 256.757 66.3659 253.067 74.296 246.36C76.736 244.24 77.856 240.98 76.986 238.47C76.436 236.89 76.166 236.09 75.616 234.47C67.476 241.65 56.636 244.85 45.966 245.2Z" fill="#455A64"/>
<path d="M74.296 246.36C66.3637 253.077 56.3098 256.768 45.916 256.78C45.206 256.78 44.506 256.78 43.826 256.78C43.146 256.78 42.466 256.72 41.826 256.67L40.826 256.57L39.296 256.4C38.966 256.4 38.636 256.31 38.296 256.25L37.296 256.08L35.686 255.77L35.396 255.7C34.776 255.56 34.166 255.4 33.576 255.24C32.986 255.08 32.126 254.82 31.436 254.59L30.236 254.16C29.706 253.98 29.236 253.77 28.696 253.56C27.696 253.16 26.776 252.73 25.906 252.3L25.246 251.96C24.976 251.83 24.716 251.68 24.486 251.55C24.256 251.42 23.756 251.14 23.416 250.94L22.306 250.26L21.256 249.58C20.926 249.36 20.616 249.13 20.256 248.91C20.986 244.98 21.356 243 22.086 239C24.3205 240.335 26.6739 241.46 29.116 242.36C28.856 244.29 28.526 245.81 28.596 246.09C31.316 256.05 55.136 257.82 74.296 246.36Z" fill="#263238"/>
<path d="M73.286 53.0304C73.3708 51.0178 73.2062 49.0025 72.796 47.0304C69.046 29.4404 58.116 13.7704 52.376 5.52036C51.1353 3.70649 49.6629 2.06256 47.996 0.630356C47.3968 0.219741 46.6874 0 45.961 0C45.2346 0 44.5252 0.219741 43.926 0.630356C42.2297 2.02922 40.7562 3.67811 39.556 5.52036C34.176 14.0104 22.876 29.4404 19.126 47.0304C18.7159 49.0025 18.5513 51.0178 18.636 53.0304L22.046 209.2C22.046 214.09 26.536 218.99 35.506 221.66C42.3331 223.68 49.599 223.68 56.426 221.66C65.426 218.99 69.876 214.09 69.876 209.2L73.286 53.0304Z" fill="#BA68C8"/>
<path opacity="0.5" d="M62.916 65.3004C62.916 79.9004 61.816 160.95 60.986 219.93C66.896 217.15 69.856 213.17 69.856 209.2L73.266 53.0304C73.3508 51.0178 73.1862 49.0025 72.776 47.0304C69.026 29.4404 58.096 13.7704 52.356 5.52036C51.876 4.84036 51.296 4.09036 50.706 3.38036C58.326 17.7904 62.916 41.8904 62.916 65.3004Z" fill="white"/>
<path opacity="0.1" d="M56.426 221.66C65.426 218.99 69.876 214.09 69.876 209.2L72.616 83.7604C71.8938 82.5148 71.0169 81.3657 70.006 80.3404C69.4523 79.9567 68.7947 79.7512 68.121 79.7512C67.4474 79.7512 66.7898 79.9567 66.236 80.3404C65.326 80.9704 63.136 84.5904 62.086 86.1504C56.906 93.7804 46.726 108.2 43.256 124.5C42.8782 126.321 42.7237 128.182 42.796 130.04L45.916 221.27C45.9182 221.912 46.0056 222.551 46.176 223.17C49.6466 223.15 53.0971 222.642 56.426 221.66Z" fill="black"/>
<path opacity="0.2" d="M47.996 0.660362C47.3968 0.249748 46.6874 0.0299988 45.961 0.0299988C45.2346 0.0299988 44.5252 0.249748 43.926 0.660362C42.2297 2.05923 40.7562 3.7081 39.556 5.55036C34.176 14.0404 22.876 29.4704 19.126 47.0604C18.7159 49.0325 18.5513 51.0478 18.636 53.0604L22.046 209.23C22.046 213.54 25.536 217.85 32.486 220.64V129.64C32.486 77.8404 33.956 42.8204 36.236 29.9504C38.516 17.0804 45.436 -0.709638 47.996 0.660362Z" fill="black"/>
<path d="M24.916 57.3604C36.436 64.0104 55.126 64.0104 66.646 57.3604C69.2839 55.927 71.5587 53.9088 73.296 51.4604C73.2696 49.9811 73.1022 48.5078 72.796 47.0604C72.636 46.2904 72.456 45.5404 72.266 44.7804C70.6648 46.5998 68.764 48.1319 66.646 49.3104C55.126 55.9604 36.436 55.9604 24.916 49.3104C22.927 48.1947 21.1251 46.7741 19.576 45.1004C19.416 45.7504 19.266 46.4004 19.126 47.1004C18.795 48.7195 18.6275 50.3678 18.626 52.0204C20.3323 54.2148 22.4738 56.0328 24.916 57.3604Z" fill="#455A64"/>
<path d="M18.806 49.0604C18.806 49.2704 18.806 49.4704 18.736 49.6804C18.666 49.8904 18.736 50.2804 18.676 50.5904C18.676 50.6904 18.676 50.7904 18.676 50.9004V51.9804C20.3637 54.1839 22.488 56.0155 24.916 57.3604C27.6689 58.9109 30.619 60.0815 33.686 60.8404C33.806 58.0404 33.936 55.3904 34.076 52.8904C30.8741 52.1432 27.7913 50.9552 24.916 49.3604C22.927 48.2447 21.1251 46.8241 19.576 45.1504C19.416 45.8004 19.266 46.4504 19.126 47.1504C19.036 47.5904 18.956 48.0304 18.896 48.4804C18.856 48.6104 18.836 48.8404 18.806 49.0604Z" fill="#37474F"/>
<path d="M92.916 243.42H84.196C82.956 250.95 86.9561 256.73 88.5561 256.73C90.1561 256.73 94.116 250.95 92.916 243.42Z" fill="#BA68C8"/>
<path opacity="0.7" d="M92.916 243.42H84.196C82.956 250.95 86.9561 256.73 88.5561 256.73C90.1561 256.73 94.116 250.95 92.916 243.42Z" fill="white"/>
<path d="M88.516 243.42H90.006C90.6905 244.635 90.974 246.035 90.816 247.42C90.636 249.42 89.416 252.09 88.516 252.09C87.616 252.09 86.396 249.45 86.216 247.42C86.058 246.035 86.3415 244.635 87.026 243.42H88.516Z" fill="white"/>
<path d="M92.846 229.88L83.846 233.06L83.136 236.06C83.1096 236.688 83.2458 237.311 83.5314 237.87C83.817 238.429 84.2423 238.904 84.766 239.25C85.1873 239.56 85.648 239.812 86.136 240C87.8146 240.636 89.6674 240.636 91.346 240C91.8224 239.812 92.2728 239.563 92.686 239.26C93.2111 238.916 93.6375 238.44 93.9233 237.881C94.2091 237.322 94.3444 236.698 94.316 236.07L92.846 229.88Z" fill="#BA68C8"/>
<path opacity="0.25" d="M92.846 229.88L83.846 233.06L83.136 236.06C83.1096 236.688 83.2458 237.311 83.5314 237.87C83.817 238.429 84.2423 238.904 84.766 239.25C85.1873 239.56 85.648 239.812 86.136 240C87.8146 240.636 89.6674 240.636 91.346 240C91.8224 239.812 92.2728 239.563 92.686 239.26C93.2111 238.916 93.6375 238.44 93.9233 237.881C94.2091 237.322 94.3444 236.698 94.316 236.07L92.846 229.88Z" fill="black"/>
<path d="M94.506 236.97L94.806 238.24C94.8037 238.898 94.6392 239.545 94.3269 240.125C94.0147 240.704 93.5644 241.197 93.016 241.56C92.5664 241.898 92.0716 242.171 91.546 242.37C89.7254 243.058 87.7167 243.058 85.896 242.37C85.3607 242.167 84.8559 241.891 84.396 241.55C83.8481 241.185 83.3989 240.69 83.0884 240.109C82.7779 239.528 82.6156 238.879 82.616 238.22L81.796 241.74C81.829 242.409 82.0294 243.059 82.3788 243.631C82.7283 244.202 83.2156 244.676 83.796 245.01C84.3411 245.373 84.9333 245.659 85.556 245.86C87.5992 246.531 89.8029 246.531 91.846 245.86C92.4559 245.65 93.0371 245.365 93.576 245.01C94.1565 244.676 94.6438 244.202 94.9932 243.631C95.3427 243.059 95.5431 242.409 95.576 241.74L94.506 236.97Z" fill="#BA68C8"/>
<path opacity="0.25" d="M94.506 236.97L94.806 238.24C94.8037 238.898 94.6392 239.545 94.3269 240.125C94.0147 240.704 93.5644 241.197 93.016 241.56C92.5664 241.898 92.0716 242.171 91.546 242.37C89.7254 243.058 87.7167 243.058 85.896 242.37C85.3607 242.167 84.8559 241.891 84.396 241.55C83.8481 241.185 83.3989 240.69 83.0884 240.109C82.7779 239.528 82.6156 238.879 82.616 238.22L81.796 241.74C81.829 242.409 82.0294 243.059 82.3788 243.631C82.7283 244.202 83.2156 244.676 83.796 245.01C84.3411 245.373 84.9333 245.659 85.556 245.86C87.5992 246.531 89.8029 246.531 91.846 245.86C92.4559 245.65 93.0371 245.365 93.576 245.01C94.1565 244.676 94.6438 244.202 94.9932 243.631C95.3427 243.059 95.5431 242.409 95.576 241.74L94.506 236.97Z" fill="black"/>
<path d="M94.506 236.95L94.436 236.65L94.296 236.06C94.3244 236.688 94.1891 237.312 93.9033 237.871C93.6175 238.43 93.1911 238.906 92.666 239.25C92.2528 239.553 91.8025 239.802 91.326 239.99C89.6475 240.626 87.7946 240.626 86.116 239.99C85.6281 239.802 85.1673 239.55 84.746 239.24C84.2223 238.894 83.797 238.419 83.5114 237.86C83.2258 237.301 83.0896 236.677 83.116 236.05L82.616 238.22C82.6156 238.879 82.7779 239.528 83.0884 240.109C83.3989 240.69 83.8481 241.185 84.396 241.55C84.8559 241.891 85.3607 242.167 85.896 242.37C87.7167 243.058 89.7254 243.058 91.546 242.37C92.0716 242.171 92.5664 241.898 93.016 241.56C93.5644 241.197 94.0147 240.704 94.3269 240.125C94.6392 239.545 94.8037 238.898 94.806 238.24L94.506 236.95Z" fill="#455A64"/>
<path opacity="0.15" d="M93.606 233.11L92.846 229.88L83.846 233.06L83.136 236.06L82.936 236.95L82.636 238.23L82.056 240.68C87.176 239.22 91.306 236.5 93.606 233.11Z" fill="black"/>
<path d="M62.066 243.42H53.346C52.106 250.95 56.1061 256.73 57.7061 256.73C59.3061 256.73 63.316 250.95 62.066 243.42Z" fill="#BA68C8"/>
<path opacity="0.7" d="M62.066 243.42H53.346C52.106 250.95 56.1061 256.73 57.7061 256.73C59.3061 256.73 63.316 250.95 62.066 243.42Z" fill="white"/>
<path d="M57.706 243.42H59.206C59.8906 244.635 60.174 246.035 60.016 247.42C59.836 249.42 58.606 252.09 57.706 252.09C56.806 252.09 55.586 249.45 55.406 247.42C55.248 246.035 55.5315 244.635 56.216 243.42H57.706Z" fill="white"/>
<path d="M62.036 229.88H53.786L52.316 236.06C52.2856 236.687 52.419 237.311 52.7031 237.87C52.9871 238.43 53.4121 238.905 53.936 239.25C54.3573 239.56 54.8181 239.812 55.3061 240C56.9846 240.636 58.8375 240.636 60.5161 240C60.9934 239.814 61.444 239.565 61.856 239.26C62.3811 238.916 62.8075 238.44 63.0933 237.881C63.3791 237.322 63.5144 236.698 63.4861 236.07L62.036 229.88Z" fill="#BA68C8"/>
<path opacity="0.25" d="M62.036 229.88H53.786L52.316 236.06C52.2856 236.687 52.419 237.311 52.7031 237.87C52.9871 238.43 53.4121 238.905 53.936 239.25C54.3573 239.56 54.8181 239.812 55.3061 240C56.9846 240.636 58.8375 240.636 60.5161 240C60.9934 239.814 61.444 239.565 61.856 239.26C62.3811 238.916 62.8075 238.44 63.0933 237.881C63.3791 237.322 63.5144 236.698 63.4861 236.07L62.036 229.88Z" fill="black"/>
<path d="M63.626 236.65L63.696 236.95L63.996 238.24C63.9937 238.898 63.8292 239.545 63.5169 240.125C63.2047 240.704 62.7544 241.197 62.206 241.56C61.7564 241.898 61.2616 242.171 60.736 242.37C58.9154 243.058 56.9067 243.058 55.086 242.37C54.5517 242.165 54.0473 241.889 53.586 241.55C53.0381 241.185 52.5889 240.69 52.2784 240.109C51.9678 239.528 51.8056 238.879 51.806 238.22L50.986 241.74C51.019 242.409 51.2194 243.059 51.5688 243.631C51.9183 244.202 52.4056 244.676 52.986 245.01C53.5311 245.373 54.1233 245.659 54.746 245.86C56.7891 246.531 58.9929 246.531 61.036 245.86C61.6467 245.652 62.2282 245.367 62.766 245.01C63.3465 244.676 63.8338 244.202 64.1832 243.631C64.5327 243.059 64.7331 242.409 64.766 241.74L63.626 236.65Z" fill="#BA68C8"/>
<path opacity="0.25" d="M63.626 236.65L63.696 236.95L63.996 238.24C63.9937 238.898 63.8292 239.545 63.5169 240.125C63.2047 240.704 62.7544 241.197 62.206 241.56C61.7564 241.898 61.2616 242.171 60.736 242.37C58.9154 243.058 56.9067 243.058 55.086 242.37C54.5517 242.165 54.0473 241.889 53.586 241.55C53.0381 241.185 52.5889 240.69 52.2784 240.109C51.9678 239.528 51.8056 238.879 51.806 238.22L50.986 241.74C51.019 242.409 51.2194 243.059 51.5688 243.631C51.9183 244.202 52.4056 244.676 52.986 245.01C53.5311 245.373 54.1233 245.659 54.746 245.86C56.7891 246.531 58.9929 246.531 61.036 245.86C61.6467 245.652 62.2282 245.367 62.766 245.01C63.3465 244.676 63.8338 244.202 64.1832 243.631C64.5327 243.059 64.7331 242.409 64.766 241.74L63.626 236.65Z" fill="black"/>
<path d="M63.696 236.95L63.626 236.65L63.486 236.06C63.5144 236.688 63.3791 237.312 63.0933 237.871C62.8075 238.43 62.3811 238.906 61.856 239.25C61.444 239.555 60.9934 239.804 60.516 239.99C58.8375 240.626 56.9846 240.626 55.306 239.99C54.8181 239.802 54.3573 239.55 53.936 239.24C53.4121 238.895 52.9871 238.42 52.703 237.86C52.419 237.301 52.2856 236.677 52.316 236.05L51.806 238.22C51.8056 238.879 51.9678 239.528 52.2784 240.109C52.5889 240.69 53.0381 241.185 53.586 241.55C54.0473 241.889 54.5517 242.165 55.086 242.37C56.9067 243.058 58.9154 243.058 60.736 242.37C61.2616 242.171 61.7564 241.898 62.206 241.56C62.7544 241.197 63.2047 240.704 63.5169 240.125C63.8292 239.545 63.9937 238.898 63.996 238.24L63.696 236.95Z" fill="#455A64"/>
<path opacity="0.15" d="M53.786 229.88L53.026 233.08C55.306 236.48 59.436 239.2 64.566 240.67L63.626 236.67L63.486 236.08L62.036 229.9L53.786 229.88Z" fill="black"/>
<path d="M81.796 248.91L73.306 246.71L64.816 248.91C64.1792 252.777 64.2096 256.724 64.906 260.58C66.016 267.71 70.986 274.84 73.306 274.84C75.626 274.84 80.586 267.71 81.696 260.58C82.3918 256.724 82.4257 252.778 81.796 248.91Z" fill="#BA68C8"/>
<path opacity="0.7" d="M81.796 248.91L73.306 246.71L64.816 248.91C64.1792 252.777 64.2096 256.724 64.906 260.58C66.016 267.71 70.986 274.84 73.306 274.84C75.626 274.84 80.586 267.71 81.696 260.58C82.3918 256.724 82.4257 252.778 81.796 248.91Z" fill="white"/>
<path d="M78.856 249.94H67.236C65.576 259.94 70.906 267.67 73.046 267.67C75.186 267.67 80.516 259.97 78.856 249.94Z" fill="#BA68C8"/>
<path d="M73.046 249.94H75.0461C75.97 251.566 76.3486 253.444 76.126 255.3C75.886 258 74.2561 261.52 73.0561 261.52C71.8561 261.52 70.2261 258 69.9861 255.3C69.7692 253.444 70.1473 251.567 71.066 249.94H73.066" fill="white"/>
<path d="M80.756 239.41L79.816 235.41H66.816L65.886 239.41C65.8488 240.246 66.0291 241.077 66.4095 241.822C66.7899 242.567 67.3573 243.2 68.0561 243.66C68.6168 244.077 69.2327 244.413 69.886 244.66C72.1213 245.511 74.5908 245.511 76.826 244.66C77.4631 244.412 78.0622 244.075 78.606 243.66C79.3018 243.199 79.8658 242.564 80.2427 241.819C80.6196 241.074 80.7965 240.244 80.756 239.41Z" fill="#BA68C8"/>
<path d="M80.916 240.2L81.006 240.59L81.406 242.31C81.4081 243.189 81.1928 244.054 80.7793 244.828C80.3657 245.603 79.7668 246.263 79.036 246.75C78.4212 247.196 77.7483 247.556 77.036 247.82C74.6094 248.735 71.9326 248.735 69.506 247.82C68.793 247.55 68.1201 247.183 67.506 246.73C66.7732 246.242 66.1724 245.581 65.7572 244.804C65.3419 244.028 65.1251 243.161 65.126 242.28L64.036 246.97C64.085 247.865 64.3578 248.733 64.8296 249.495C65.3013 250.257 65.9569 250.888 66.736 251.33C67.4619 251.819 68.253 252.203 69.086 252.47C71.8069 253.37 74.7452 253.37 77.466 252.47C78.281 252.194 79.0573 251.814 79.776 251.34C80.5552 250.898 81.2107 250.267 81.6825 249.505C82.1542 248.743 82.4271 247.875 82.476 246.98L80.916 240.2Z" fill="#BA68C8"/>
<path d="M81.026 240.59L80.936 240.2L80.756 239.41C80.7932 240.247 80.6118 241.079 80.2295 241.824C79.8472 242.57 79.2774 243.202 78.576 243.66C78.0322 244.075 77.4331 244.412 76.796 244.66C74.5608 245.511 72.0912 245.511 69.856 244.66C69.2027 244.413 68.5868 244.077 68.026 243.66C67.3273 243.2 66.7599 242.567 66.3795 241.822C65.9991 241.077 65.8187 240.246 65.856 239.41L65.176 242.3C65.1751 243.181 65.392 244.048 65.8072 244.824C66.2224 245.601 66.8232 246.262 67.556 246.75C68.1701 247.203 68.843 247.57 69.556 247.84C71.9826 248.755 74.6595 248.755 77.086 247.84C77.7983 247.576 78.4712 247.216 79.086 246.77C79.8169 246.283 80.4158 245.623 80.8293 244.848C81.2428 244.074 81.4582 243.209 81.456 242.33L81.026 240.59Z" fill="#455A64"/>
<path opacity="0.15" d="M73.286 241.87C75.9207 241.877 78.5464 241.565 81.106 240.94L81.026 240.59L80.936 240.2L80.756 239.41L79.816 235.41H66.816L65.886 239.41L65.526 240.95C68.0671 241.563 70.6721 241.872 73.286 241.87Z" fill="black"/>
<path d="M83.666 212.93L120.176 199.49C120.222 197.925 120.169 196.359 120.016 194.8C120.016 194.32 119.916 193.86 119.856 193.4C119.796 192.94 119.716 192.51 119.626 192.09C119.536 191.67 119.426 191.21 119.306 190.8C119.246 190.58 119.176 190.38 119.106 190.17C119.036 189.96 119.016 189.85 118.956 189.7C118.163 187.173 116.455 185.033 114.166 183.7L109.486 181.01L108.986 180.71C107.502 179.91 105.88 179.398 104.206 179.2C100.639 178.796 97.1361 177.953 93.776 176.69C92.7534 175.848 91.8634 174.857 91.136 173.75C87.576 168.31 86.676 156.62 86.906 150.81L85.906 170.63C82.406 165.13 81.526 153.63 81.746 147.81L78.526 209.94L83.966 207.94V208.1L83.666 212.93Z" fill="#BA68C8"/>
<path d="M120.176 199.49L83.666 212.93L83.926 208.1V207.94L85.916 170.63L86.916 150.81C86.686 156.62 87.586 168.31 91.146 173.75C91.8734 174.857 92.7634 175.848 93.786 176.69C97.386 179.69 102.786 181.29 109.396 182.19C110.071 182.275 110.739 182.405 111.396 182.58C112.368 182.839 113.305 183.215 114.186 183.7C116.475 185.033 118.183 187.173 118.976 189.7C119.036 189.85 119.076 190.01 119.126 190.17C119.176 190.33 119.266 190.58 119.326 190.8C119.446 191.21 119.546 191.64 119.646 192.09C119.746 192.54 119.806 192.95 119.876 193.4C119.946 193.85 119.996 194.32 120.036 194.8C120.182 196.359 120.229 197.926 120.176 199.49Z" fill="#BA68C8"/>
<path opacity="0.35" d="M114.156 183.7C113.275 183.215 112.338 182.839 111.366 182.58C110.709 182.405 110.041 182.275 109.366 182.19C102.716 181.29 97.366 179.71 93.756 176.69C97.1161 177.953 100.619 178.796 104.186 179.2C105.86 179.398 107.482 179.91 108.966 180.71L109.466 181.01L114.156 183.7Z" fill="black"/>
<path d="M84.216 202.5L118.966 189.7C119.522 191.355 119.877 193.071 120.026 194.81L83.916 208.1L84.216 202.5Z" fill="#455A64"/>
<path d="M98.626 133.67C98.7017 131.812 98.5506 129.952 98.176 128.13C94.696 111.83 84.956 98.4504 79.336 89.7804C78.336 88.2004 76.106 84.6004 75.186 83.9704C74.6346 83.5857 73.9784 83.3797 73.306 83.3804C72.6308 83.3809 71.9716 83.5866 71.416 83.9704C70.506 84.6004 68.326 88.2204 67.266 89.7804C62.086 97.4104 51.906 111.83 48.436 128.13C48.0582 129.951 47.9037 131.812 47.976 133.67L51.146 224.9C51.146 229.44 55.296 233.98 63.606 236.45C69.9341 238.32 76.668 238.32 82.996 236.45C91.306 233.98 95.466 229.45 95.466 224.9L98.626 133.67Z" fill="#BA68C8"/>
<path opacity="0.5" d="M98.626 133.67C98.7017 131.812 98.5506 129.952 98.176 128.13C94.696 111.83 84.956 98.4504 79.336 89.7804C78.336 88.2004 76.106 84.6004 75.186 83.9704C74.6346 83.5857 73.9784 83.3797 73.306 83.3804C72.6308 83.3809 71.9716 83.5866 71.416 83.9704C70.506 84.6004 68.326 88.2204 67.266 89.7804C62.086 97.4104 51.906 111.83 48.436 128.13C48.0582 129.951 47.9037 131.812 47.976 133.67L51.146 224.9C51.146 229.44 55.296 233.98 63.606 236.45C69.9341 238.32 76.668 238.32 82.996 236.45C91.306 233.98 95.466 229.45 95.466 224.9L98.626 133.67Z" fill="white"/>
<path opacity="0.5" d="M95.466 224.9L98.626 133.67C98.6968 131.812 98.5457 129.953 98.176 128.13C94.696 111.83 84.956 98.4504 79.336 89.7804L78.486 88.4504C83.096 100.17 90.386 118.95 90.856 145.24C91.136 160.76 90.026 202.37 89.076 233.88C93.326 231.36 95.466 228.15 95.466 224.9Z" fill="white"/>
<path d="M67.266 89.7804C65.366 92.5804 62.776 96.3204 60.106 100.72C62.736 102.48 66.286 105.18 73.306 105.18C78.0726 105.332 82.7363 103.775 86.456 100.79C83.876 96.5804 81.346 92.8704 79.336 89.7904C78.336 88.2104 76.106 84.6104 75.186 83.9804C74.6346 83.5957 73.9784 83.3897 73.306 83.3904C72.6308 83.3909 71.9716 83.5966 71.416 83.9804C70.506 84.6004 68.326 88.2204 67.266 89.7804Z" fill="#37474F"/>
<path d="M78.486 88.4504C80.036 92.3704 81.876 97.1104 83.666 102.63C84.666 102.03 85.606 101.39 86.456 100.79C84.456 97.5104 82.456 94.5604 80.756 91.9504L79.336 89.7804L78.766 88.8804L78.486 88.4504Z" fill="#455A64"/>
<path d="M65.506 92.3604L64.956 93.1804L64.426 93.9804C64.096 94.4604 63.766 94.9804 63.426 95.4804L62.936 96.2204L62.296 97.2204C62.126 97.4704 61.956 97.7304 61.796 98.0004L61.136 99.0004C60.796 99.5504 60.446 100.1 60.136 100.67C61.6394 101.752 63.2396 102.693 64.916 103.48C68.526 93.3004 72.786 83.0304 74.916 83.7504C74.6844 83.624 74.4396 83.5234 74.186 83.4504H74.106C73.8523 83.3781 73.5898 83.3411 73.326 83.3404C72.6508 83.3408 71.9916 83.5466 71.436 83.9304C70.526 84.5604 68.346 88.1804 67.286 89.7404L66.076 91.5204L65.506 92.3604Z" fill="#263238"/>
<path d="M94.626 116.63C95.1356 118.445 94.913 120.388 94.006 122.04C92.7752 124.211 90.9457 125.981 88.736 127.14C86.0991 128.612 83.2319 129.627 80.256 130.14C76.786 130.77 73.786 133.56 73.636 137.08L73.576 138.53C73.426 142.06 76.176 144.96 79.666 144.44C83.6866 143.892 87.5715 142.608 91.126 140.65C96.126 137.76 98.576 133.97 98.496 130.19C98.4838 129.302 98.332 128.421 98.046 127.58C97.1938 123.847 96.0503 120.185 94.626 116.63Z" fill="#37474F"/>
<path d="M98.496 130.23C98.416 129.53 98.316 128.83 98.176 128.13C98.076 127.68 97.956 127.24 97.856 126.79C97.696 126.12 97.536 125.45 97.356 124.79L97.146 124.06C96.946 123.36 96.746 122.66 96.536 121.97C96.326 121.28 96.096 120.67 95.876 120.03C95.786 119.78 95.706 119.52 95.626 119.28C95.306 118.4 94.976 117.54 94.626 116.69C95.1173 118.488 94.8914 120.406 93.996 122.04C92.8925 124.002 91.2833 125.632 89.336 126.76C89.986 131.17 90.456 135.86 90.696 140.84L91.116 140.63C96.086 137.76 98.546 133.99 98.496 130.23Z" fill="#455A64"/>
<path d="M101.486 233.96C101.486 231.88 96.756 208.29 89.886 202.3C89.5495 201.998 89.1353 201.796 88.6901 201.717C88.2449 201.637 87.7863 201.683 87.366 201.85C86.4944 202.267 85.7362 202.888 85.156 203.66C80.7196 209.33 78.365 216.352 78.486 223.55V234.47L88.086 238.17C91.7478 239.411 95.7513 239.156 99.226 237.46C99.8794 237.132 100.432 236.634 100.826 236.018C101.221 235.402 101.441 234.691 101.466 233.96H101.486Z" fill="#BA68C8"/>
<path d="M98.356 231.55C98.9643 231.24 99.4809 230.775 99.8545 230.204C100.228 229.632 100.446 228.972 100.486 228.29C100.256 227.21 99.976 226.02 99.656 224.76C99.634 225.433 99.431 226.087 99.0685 226.653C98.706 227.22 98.1973 227.679 97.596 227.98C94.3953 229.541 90.7081 229.774 87.336 228.63L78.496 225.23V228.65L87.706 232.19C91.2021 233.386 95.0283 233.156 98.356 231.55Z" fill="#455A64"/>
<path opacity="0.25" d="M87.3961 201.85C86.512 202.26 85.7426 202.882 85.156 203.66C80.7196 209.334 78.3651 216.359 78.486 223.56V234.47L88.0861 238.17C88.9808 238.497 89.9103 238.718 90.856 238.83C89.126 228.29 85.5061 204.64 87.3961 201.85Z" fill="black"/>
<path d="M89.916 232.77C89.736 231.61 89.546 230.4 89.366 229.16C88.6837 229.059 88.0136 228.888 87.366 228.65L78.526 225.25V228.67L87.736 232.21C88.4418 232.471 89.1722 232.658 89.916 232.77Z" fill="#37474F"/>
<path d="M23.136 233.2L14.646 231L6.15604 233.2C5.52642 237.068 5.56022 241.014 6.25603 244.87C7.36603 251.99 12.326 259.12 14.646 259.12C16.966 259.12 21.936 251.99 23.046 244.87C23.7425 241.014 23.7729 237.067 23.136 233.2Z" fill="#BA68C8"/>
<path opacity="0.7" d="M23.136 233.2L14.646 231L6.15604 233.2C5.52642 237.068 5.56022 241.014 6.25603 244.87C7.36603 251.99 12.326 259.12 14.646 259.12C16.966 259.12 21.936 251.99 23.046 244.87C23.7425 241.014 23.7729 237.067 23.136 233.2Z" fill="white"/>
<path d="M20.206 234.22H8.58603C6.92603 244.22 12.256 251.96 14.396 251.96C16.536 251.96 21.916 244.26 20.206 234.22Z" fill="#BA68C8"/>
<path d="M14.396 234.22H16.396C17.3128 235.848 17.6908 237.724 17.476 239.58C17.236 242.29 15.606 245.81 14.406 245.81C13.206 245.81 11.576 242.29 11.336 239.58C11.1156 237.724 11.494 235.846 12.416 234.22H14.416" fill="white"/>
<path d="M22.096 223.7L21.166 219.7H8.16603L7.22603 223.7C7.19179 224.537 7.37455 225.368 7.75656 226.112C8.13857 226.857 8.70683 227.49 9.40604 227.95C9.96562 228.363 10.5777 228.699 11.226 228.95C13.4656 229.796 15.9365 229.796 18.176 228.95C18.8111 228.698 19.4097 228.361 19.956 227.95C20.65 227.488 21.2119 226.853 21.587 226.108C21.9621 225.363 22.1375 224.533 22.096 223.7Z" fill="#BA68C8"/>
<path d="M22.286 224.49L22.376 224.88L22.776 226.6C22.7754 227.478 22.5578 228.341 22.1425 229.114C21.7273 229.887 21.1273 230.545 20.396 231.03C19.7796 231.476 19.1072 231.84 18.396 232.11C15.9694 233.025 13.2926 233.025 10.866 232.11C10.1512 231.843 9.47781 231.476 8.86603 231.02C8.13273 230.535 7.53139 229.876 7.11598 229.101C6.70058 228.326 6.48413 227.46 6.48604 226.58L5.38603 231.27C5.43496 232.165 5.70782 233.033 6.17958 233.795C6.65134 234.557 7.30687 235.188 8.08603 235.63C8.81522 236.113 9.60552 236.496 10.436 236.77C13.1611 237.666 16.101 237.666 18.826 236.77C19.6387 236.496 20.4119 236.116 21.126 235.64C21.9064 235.199 22.5629 234.569 23.0349 233.806C23.5068 233.044 23.7789 232.176 23.826 231.28L22.286 224.49Z" fill="#BA68C8"/>
<path d="M22.376 224.88L22.286 224.49L22.096 223.7C22.1343 224.536 21.9544 225.368 21.5739 226.113C21.1934 226.858 20.6255 227.491 19.926 227.95C19.3797 228.361 18.7811 228.698 18.146 228.95C15.9065 229.796 13.4356 229.796 11.196 228.95C10.5477 228.699 9.93561 228.363 9.37603 227.95C8.67682 227.49 8.10857 226.857 7.72656 226.112C7.34455 225.368 7.16178 224.537 7.19603 223.7L6.52603 226.59C6.52412 227.47 6.74058 228.336 7.15599 229.111C7.57139 229.886 8.17274 230.545 8.90603 231.03C9.51781 231.486 10.1912 231.853 10.906 232.12C13.3326 233.035 16.0094 233.035 18.436 232.12C19.1472 231.85 19.8196 231.486 20.436 231.04C21.1673 230.555 21.7673 229.897 22.1825 229.124C22.5978 228.351 22.8154 227.488 22.816 226.61L22.376 224.88Z" fill="#455A64"/>
<path opacity="0.15" d="M14.646 227.89C17.406 227.89 21.366 227.01 22.456 225.23L22.376 224.88L22.286 224.49L22.096 223.7L21.166 219.7H8.16603L7.22603 223.7L6.86603 225.24C7.59603 227.09 11.916 227.89 14.646 227.89Z" fill="black"/>
<path d="M11.566 59.0603C11.8493 59.0583 12.1271 59.1382 12.366 59.2903C13.4677 60.5146 14.4866 61.8108 15.416 63.1703C17.566 66.4203 22.086 72.8503 23.676 79.6503C23.8524 80.4105 23.9297 81.1903 23.906 81.9704C26.666 130.07 24.756 164.91 24.006 219.15C24.006 221.05 22.336 222.98 18.876 224.09C17.5651 224.506 16.2011 224.732 14.826 224.76C13.4555 224.781 12.0889 224.609 10.766 224.25C7.25604 223.25 5.47603 221.41 5.44603 219.51C2.37603 165.35 -0.713975 130.6 0.146025 82.4404C0.10094 81.6605 0.151322 80.878 0.296034 80.1104C1.61603 73.2504 5.87603 66.6503 7.89603 63.3103C8.77536 61.9158 9.74407 60.5797 10.796 59.3103C11.0294 59.1505 11.3034 59.0603 11.586 59.0504L11.566 59.0603Z" fill="#455A64"/>
<path d="M19.306 223.93C22.466 222.81 24.036 220.93 24.006 219.15C24.756 164.91 26.666 130.07 23.906 81.9704C23.9297 81.1903 23.8524 80.4105 23.676 79.6503C22.086 72.8503 17.566 66.4203 15.416 63.1703C14.4866 61.8108 13.4677 60.5146 12.366 59.2903C16.036 68.0103 17.956 82.7104 18.626 109.1C19.106 127.67 19.256 189.13 19.306 223.93Z" fill="#37474F"/>
<path d="M21.016 89.5604C22.3259 88.8782 23.4149 87.8378 24.156 86.5604C24.086 85.1304 24.006 83.6904 23.926 82.2304C23.1768 83.3215 22.1795 84.2194 21.016 84.8504C16.016 87.7204 8.01604 87.7204 3.01604 84.8504C1.88873 84.2265 0.915009 83.3587 0.166031 82.3104V82.4704C0.166031 83.9904 0.166024 85.4704 0.0960236 86.9804C0.846931 88.0711 1.84822 88.9661 3.01604 89.5904C7.97604 92.4404 16.046 92.4404 21.016 89.5604Z" fill="#BA68C8"/>
<path d="M4.25603 96.4704C4.83655 96.8435 5.32045 97.3489 5.66808 97.9451C6.0157 98.5413 6.21718 99.2113 6.25603 99.9003C6.25603 101.16 5.36603 101.67 4.25603 101.04C3.67661 100.666 3.19358 100.16 2.8461 99.5644C2.49862 98.9684 2.29646 98.299 2.25603 97.6104C2.27603 96.3604 3.16603 95.8404 4.25603 96.4704Z" fill="#BA68C8"/>
<path d="M4.17603 104.59C4.72333 104.946 5.17893 105.425 5.50565 105.99C5.83236 106.555 6.02095 107.189 6.05603 107.84C6.05603 109.04 5.21603 109.52 4.17603 108.92C3.63058 108.564 3.17694 108.084 2.85201 107.519C2.52707 106.954 2.34 106.321 2.30603 105.67C2.30603 104.48 3.14603 103.99 4.17603 104.59Z" fill="#BA68C8"/>
<path d="M4.27603 112.71C4.79022 113.052 5.21847 113.507 5.52727 114.042C5.83607 114.576 6.01704 115.174 6.05603 115.79C6.05603 116.92 5.25603 117.38 4.27603 116.79C3.75953 116.455 3.32987 116.002 3.02222 115.468C2.71456 114.934 2.53767 114.335 2.50603 113.72C2.50603 112.61 3.29603 112.15 4.27603 112.71Z" fill="#BA68C8"/>
<path d="M4.49603 120.84C4.98453 121.157 5.39129 121.585 5.68321 122.089C5.97514 122.593 6.14398 123.159 6.17603 123.74C6.17603 124.81 5.42603 125.24 4.49603 124.74C4.01071 124.423 3.60672 123.996 3.31664 123.494C3.02655 122.992 2.8585 122.429 2.82603 121.85C2.82603 120.74 3.57603 120.36 4.49603 120.84Z" fill="#BA68C8"/>
<path d="M4.80603 128.97C5.26206 129.27 5.64163 129.671 5.91428 130.144C6.18693 130.616 6.34508 131.146 6.37604 131.69C6.37604 132.69 5.66603 133.1 4.80603 132.6C4.34834 132.303 3.9675 131.901 3.69464 131.429C3.42178 130.956 3.26464 130.425 3.23604 129.88C3.23604 128.88 3.91603 128.47 4.80603 128.97Z" fill="#BA68C8"/>
<path d="M5.14603 137.1C5.57365 137.378 5.92967 137.753 6.1851 138.194C6.44054 138.636 6.58818 139.131 6.61603 139.64C6.61603 140.58 5.95603 140.95 5.14603 140.49C4.71819 140.21 4.36222 139.834 4.10686 139.391C3.8515 138.948 3.70391 138.451 3.67603 137.94C3.67603 137.01 4.33603 136.63 5.14603 137.1Z" fill="#BA68C8"/>
<path d="M5.47603 145.22C5.8747 145.477 6.20675 145.825 6.4449 146.236C6.68305 146.646 6.82051 147.107 6.84602 147.58C6.84602 148.46 6.23603 148.81 5.47603 148.37C5.07921 148.112 4.74913 147.764 4.51276 147.354C4.27638 146.943 4.14043 146.483 4.11603 146.01C4.11603 145.14 4.72603 144.78 5.47603 145.22Z" fill="#BA68C8"/>
<path d="M57.726 227.77L21.226 256.48L16.066 253.48C15.786 242.91 19.216 233.57 26.866 223.71C30.116 219.51 33.106 215.6 35.786 211.9C39.7356 206.631 43.2728 201.064 46.366 195.25C50.766 186.57 51.856 175.18 51.786 169.19C51.801 168.991 51.801 168.79 51.786 168.59C51.786 168.39 51.786 168.2 51.786 168.02L54.526 169.36L57.726 227.77Z" fill="#BA68C8"/>
<path opacity="0.35" d="M50.276 197.2C47.006 205.97 40.576 215.68 32.026 226.71C24.376 236.58 20.946 245.9 21.226 256.48L16.066 253.48C15.786 242.91 19.216 233.57 26.866 223.71C30.116 219.51 33.106 215.6 35.786 211.9C39.7356 206.631 43.2728 201.064 46.366 195.25C50.766 186.57 51.856 175.18 51.786 169.19C51.801 168.991 51.801 168.79 51.786 168.59C51.786 168.39 51.786 168.2 51.786 168.02L54.526 169.36C54.726 174.92 53.836 187.64 50.276 197.2Z" fill="black"/>
<path d="M17.266 242.36C16.7672 244.434 16.4328 246.544 16.266 248.67L21.416 251.67V251.51C21.5934 249.451 21.9277 247.409 22.416 245.4L17.266 242.36Z" fill="#37474F"/>
<path d="M54.506 169.36C54.726 174.91 53.836 187.64 50.276 197.19C47.006 205.97 40.576 215.68 32.026 226.7C24.376 236.56 20.936 245.9 21.226 256.47L57.726 227.76L54.506 169.36Z" fill="#BA68C8"/>
<path d="M57.186 217.98L22.426 245.36C21.8974 247.434 21.5428 249.548 21.366 251.68L57.476 223.28L57.186 217.98Z" fill="#455A64"/>
<g style="mix-blend-mode:lighten" opacity="0.5">
<path d="M55.7399 338.548C56.0596 338.996 56.2329 339.531 56.236 340.081C56.2391 340.63 56.0718 341.167 55.7571 341.618C55.4424 342.069 54.9958 342.411 54.4787 342.598C53.9616 342.784 53.3994 342.806 52.8694 342.66C52.3395 342.514 51.8678 342.207 51.5192 341.782C51.1706 341.357 50.9623 340.834 50.9229 340.286C50.8835 339.738 51.0149 339.191 51.2991 338.72C51.5833 338.25 52.0063 337.879 52.5099 337.658C53.0581 337.356 53.7025 337.28 54.3059 337.447C54.9093 337.613 55.4239 338.008 55.7399 338.548Z" fill="white"/>
</g>
<g style="mix-blend-mode:lighten" opacity="0.5">
<path d="M36.3841 341.494C36.0814 341.92 35.9179 342.429 35.916 342.951C35.9142 343.473 36.0741 343.983 36.3737 344.411C36.6734 344.839 37.0982 345.164 37.5898 345.341C38.0813 345.517 38.6155 345.538 39.1191 345.399C39.6227 345.26 40.0708 344.968 40.4021 344.564C40.7334 344.161 40.9316 343.664 40.9694 343.143C41.0072 342.622 40.8828 342.102 40.6133 341.655C40.3438 341.207 39.9424 340.854 39.4641 340.644C38.9412 340.356 38.3267 340.284 37.7514 340.443C37.1761 340.602 36.6855 340.979 36.3841 341.494Z" fill="white"/>
</g>
</svg>
